<svg xmlns="http://www.w3.org/2000/svg" xmlns:xlink="http://www.w3.org/1999/xlink" viewBox="0,0,256,256" width="100px" height="100px"><g fill="none" fill-rule="nonzero" stroke="none" stroke-width="1" stroke-linecap="butt" stroke-linejoin="miter" stroke-miterlimit="10" stroke-dasharray="" stroke-dashoffset="0" font-family="none" font-weight="none" font-size="none" text-anchor="none" style="mix-blend-mode: normal"><g transform="scale(6.4,6.4)"><path d="M36.106,6c0.43,0 0.894,0.383 0.894,1.003v25.995c0,0.619 -0.465,1.002 -0.895,1.002c-0.151,0 -0.298,-0.045 -0.438,-0.135l-20.86,-13.391c-0.287,-0.184 -0.455,-0.514 -0.45,-0.883c0.005,-0.367 0.181,-0.69 0.47,-0.865l20.86,-12.603c0.135,-0.082 0.276,-0.123 0.419,-0.123M36.106,5c-0.312,0 -0.633,0.083 -0.936,0.266l-20.86,12.604c-1.251,0.756 -1.275,2.655 -0.043,3.445l20.86,13.391c0.314,0.202 0.651,0.294 0.978,0.294c0.986,0 1.895,-0.832 1.895,-2.003v-25.994c0,-1.167 -0.906,-2.003 -1.894,-2.003z" fill="#ffffff"></path><path d="M36.106,6c0.43,0 0.894,0.383 0.894,1.003v25.995c0,0.619 -0.465,1.002 -0.895,1.002c-0.151,0 -0.298,-0.045 -0.438,-0.135l-20.86,-13.391c-0.287,-0.184 -0.455,-0.514 -0.45,-0.883c0.005,-0.367 0.181,-0.69 0.47,-0.865l20.86,-12.603c0.135,-0.082 0.276,-0.123 0.419,-0.123" fill="#1f3359"></path><path d="M3.894,6v0c0.143,0 0.284,0.041 0.418,0.122l20.86,12.603c0.289,0.175 0.465,0.498 0.47,0.865c0.005,0.369 -0.163,0.699 -0.45,0.883l-20.86,13.392c-0.139,0.09 -0.286,0.135 -0.437,0.135c-0.43,0 -0.895,-0.383 -0.895,-1.003v-25.994c0,-0.62 0.464,-1.003 0.894,-1.003M3.894,5c-0.988,0 -1.894,0.836 -1.894,2.003v25.995c0,1.17 0.909,2.002 1.895,2.002c0.327,0 0.664,-0.092 0.978,-0.293l20.86,-13.391c1.232,-0.791 1.208,-2.689 -0.043,-3.445l-20.86,-12.605c-0.303,-0.183 -0.624,-0.266 -0.936,-0.266z" fill="#ffffff"></path><path d="M3.894,6v0c0.143,0 0.284,0.041 0.418,0.122l20.86,12.603c0.289,0.175 0.465,0.498 0.47,0.865c0.005,0.369 -0.163,0.699 -0.45,0.883l-20.86,13.392c-0.139,0.09 -0.286,0.135 -0.437,0.135c-0.43,0 -0.895,-0.383 -0.895,-1.003v-25.994c0,-0.62 0.464,-1.003 0.894,-1.003" fill="#ff2b06"></path></g></g></svg>